<?xml version="1.0" standalone="no"?>
<!DOCTYPE svg PUBLIC "-//W3C//DTD SVG 20010904//EN" "http://www.w3.org/TR/2001/REC-SVG-20010904/DTD/svg10.dtd">
<svg version="1.0" xmlns="http://www.w3.org/2000/svg"
  width="700.000000pt" height="700.000000pt" viewBox="0 0 700.000000 700.000000"
  preserveAspectRatio="xMidYMid meet">
  <metadata> Created by potrace 1.14, written by Peter Selinger 2001-2017 </metadata>
  <g transform="translate(0.000000,700.000000) scale(0.100000,-0.100000)"
    fill="#000000" stroke="none">
    <path
      d="M1335 6062 c-3 -3 -5 -1156 -5 -2561 l0 -2557 2155 0 2156 0 4 21 c5
26 5 874 0 900 -4 20 -12 20 -1632 20 l-1628 0 -3 610 -2 610 1025 0 c1019 0
1026 0 1030 20 2 11 7 40 10 65 3 25 10 79 16 120 5 41 12 93 15 115 4 37 11
86 19 145 2 14 6 45 10 70 3 25 8 56 10 70 2 14 7 52 10 85 4 33 8 67 10 75 5
19 17 117 19 150 l1 25 -1085 0 -1085 1 0 539 0 540 1615 1 c888 1 1623 2
1633 3 16 1 17 30 17 469 l0 469 -2155 0 c-1185 0 -2157 -3 -2160 -5z" />
  </g>
</svg>